<?xml version="1.0" encoding="UTF-8" standalone="no"?>
<!-- Created with Inkscape (http://www.inkscape.org/) -->

<svg
   width="140.35255mm"
   height="141.68082mm"
   viewBox="0 0 140.35255 141.68082"
   version="1.1"
   id="svg642"
   xml:space="preserve"
   inkscape:version="1.2.2 (732a01da63, 2022-12-09)"
   sodipodi:docname="pancakeswap.svg"
   xmlns:inkscape="http://www.inkscape.org/namespaces/inkscape"
   xmlns:sodipodi="http://sodipodi.sourceforge.net/DTD/sodipodi-0.dtd"
   xmlns="http://www.w3.org/2000/svg"
   xmlns:svg="http://www.w3.org/2000/svg"><sodipodi:namedview
     id="namedview644"
     pagecolor="#ffffff"
     bordercolor="#000000"
     borderopacity="0.25"
     inkscape:showpageshadow="2"
     inkscape:pageopacity="0.0"
     inkscape:pagecheckerboard="0"
     inkscape:deskcolor="#d1d1d1"
     inkscape:document-units="mm"
     showgrid="false"
     inkscape:zoom="0.76880612"
     inkscape:cx="286.80833"
     inkscape:cy="388.26434"
     inkscape:window-width="1920"
     inkscape:window-height="1018"
     inkscape:window-x="-8"
     inkscape:window-y="-8"
     inkscape:window-maximized="1"
     inkscape:current-layer="layer1" /><defs
     id="defs639" /><g
     inkscape:label="Layer 1"
     inkscape:groupmode="layer"
     id="layer1"
     transform="translate(-29.188741,-45.668174)"><g
       id="g786"
       transform="matrix(4.4275256,0,0,4.4275256,29.188741,45.668174)"><path
         class="st0"
         d="M 5.7,5 C 5.2,2.4 7.2,0 9.8,0 12.1,0 14,1.9 14,4.2 v 5.2 c 0.6,0 1.2,-0.1 1.8,-0.1 0.6,0 1.1,0 1.7,0.1 V 4.2 c 0,-2.3 1.9,-4.2 4.2,-4.2 2.6,0 4.6,2.4 4.2,5 l -1.1,6.1 c 3.9,1.7 6.9,4.7 6.9,8.4 v 2.3 c 0,3.1 -2,5.7 -4.9,7.4 C 23.9,31 20.1,32 15.8,32 11.5,32 7.7,31 4.8,29.2 2,27.5 0,24.9 0,21.8 v -2.3 c 0,-3.7 2.9,-6.7 6.8,-8.4 z m 17.6,6.9 1.3,-7.2 c 0.3,-1.8 -1,-3.5 -2.9,-3.5 -1.6,0 -2.9,1.3 -2.9,2.9 v 6.6 c -0.4,-0.1 -0.9,-0.1 -1.3,-0.1 -0.6,0 -1.1,-0.1 -1.7,-0.1 -0.6,0 -1.2,0 -1.8,0.1 -0.4,0 -0.9,0.1 -1.3,0.1 V 4.2 C 12.7,2.6 11.4,1.3 9.8,1.3 8,1.3 6.6,3 7,4.8 L 8.3,12 c -4.2,1.6 -7,4.4 -7,7.6 v 2.3 c 0,4.9 6.5,8.9 14.5,8.9 8,0 14.5,-4 14.5,-8.9 v -2.3 c 0.1,-3.3 -2.7,-6.1 -7,-7.7 z"
         id="path765" /><path
         class="st1"
         d="m 30.4,21.8 c 0,4.9 -6.5,8.9 -14.5,8.9 -8,0 -14.5,-4 -14.5,-8.9 v -2.3 h 29.1 v 2.3 z"
         id="path767" /><path
         class="st2"
         d="M 7,4.8 C 6.6,3 8,1.3 9.8,1.3 c 1.6,0 2.9,1.3 2.9,2.9 v 6.6 c 1,-0.1 2,-0.2 3.1,-0.2 1,0 2,0.1 3,0.2 V 4.2 c 0,-1.6 1.3,-2.9 2.9,-2.9 1.8,0 3.2,1.7 2.9,3.5 L 23.3,12 c 4.2,1.6 7.1,4.4 7.1,7.6 0,4.9 -6.5,8.9 -14.5,8.9 -8,0 -14.5,-4 -14.5,-8.9 0,-3.2 2.8,-6 7,-7.6 z"
         id="path769" /><path
         class="st3"
         d="m 11.8,18.9 c 0,1.3 -0.7,2.4 -1.6,2.4 -0.9,0 -1.6,-1.1 -1.6,-2.4 0,-1.3 0.7,-2.4 1.6,-2.4 0.9,0 1.6,1.1 1.6,2.4 z"
         id="path771" /><path
         class="st3"
         d="m 22.9,18.9 c 0,1.3 -0.7,2.4 -1.6,2.4 -0.9,0 -1.6,-1.1 -1.6,-2.4 0,-1.3 0.7,-2.4 1.6,-2.4 0.9,0 1.6,1.1 1.6,2.4 z"
         id="path773" /></g></g><style
     type="text/css"
     id="style763">
	.st0{fill-rule:evenodd;clip-rule:evenodd;fill:#633001;}
	.st1{fill:#FEDC90;}
	.st2{fill-rule:evenodd;clip-rule:evenodd;fill:#D1884F;}
	.st3{fill:#633001;}
</style></svg>
