<?xml version="1.0" encoding="UTF-8" standalone="no"?>
<!-- Created with Inkscape (http://www.inkscape.org/) -->

<svg
   width="139.66914mm"
   height="113.49013mm"
   viewBox="0 0 139.66914 113.49013"
   version="1.1"
   id="svg504"
   xml:space="preserve"
   inkscape:version="1.2.2 (732a01da63, 2022-12-09)"
   sodipodi:docname="twitter.svg"
   xmlns:inkscape="http://www.inkscape.org/namespaces/inkscape"
   xmlns:sodipodi="http://sodipodi.sourceforge.net/DTD/sodipodi-0.dtd"
   xmlns="http://www.w3.org/2000/svg"
   xmlns:svg="http://www.w3.org/2000/svg"><sodipodi:namedview
     id="namedview506"
     pagecolor="#ffffff"
     bordercolor="#000000"
     borderopacity="0.25"
     inkscape:showpageshadow="2"
     inkscape:pageopacity="0.0"
     inkscape:pagecheckerboard="0"
     inkscape:deskcolor="#d1d1d1"
     inkscape:document-units="mm"
     showgrid="false"
     inkscape:zoom="0.76880612"
     inkscape:cx="217.87027"
     inkscape:cy="349.2428"
     inkscape:window-width="1920"
     inkscape:window-height="1018"
     inkscape:window-x="-8"
     inkscape:window-y="-8"
     inkscape:window-maximized="1"
     inkscape:current-layer="layer1" /><defs
     id="defs501" /><g
     inkscape:label="Layer 1"
     inkscape:groupmode="layer"
     id="layer1"
     transform="translate(-47.622934,-56.135573)"><path
       fill="#1d9bf0"
       d="m 172.99321,84.388689 c 0.0851,1.231277 0.0851,2.462575 0.0851,3.705197 0,37.863584 -28.82465,81.531814 -81.531801,81.531814 v -0.0227 c -15.569864,0.0227 -30.816286,-4.43718 -43.923575,-12.84627 2.26399,0.27236 4.539324,0.40854 6.82032,0.41422 12.90302,0.0107 25.437196,-4.31803 35.588253,-12.29022 -12.261839,-0.23262 -23.014338,-8.22749 -26.770619,-19.89922 4.295316,0.82843 8.721151,0.65819 12.937054,-0.49365 -13.368303,-2.7009 -22.985965,-14.44637 -22.985965,-28.087036 v -0.363139 c 3.98324,2.21859 8.44313,3.449888 13.005143,3.586068 C 53.626217,91.208966 49.745101,74.45888 57.348464,61.362951 c 14.548518,17.901933 36.013798,28.784951 59.056506,29.936794 -2.30937,-9.952451 0.84545,-20.381533 8.28992,-27.377754 11.54123,-10.848967 29.69282,-10.292902 40.54177,1.242637 6.41747,-1.265333 12.56823,-3.620104 18.19699,-6.956502 -2.13915,6.633077 -6.61605,12.267503 -12.5966,15.84789 5.67982,-0.669549 11.22915,-2.190219 16.45503,-4.510946 -3.84708,5.764932 -8.6928,10.786552 -14.29885,14.843576 z"
       id="path625"
       style="stroke-width:0.567414" /></g></svg>
